<svg xmlns="http://www.w3.org/2000/svg" xmlns:xlink="http://www.w3.org/1999/xlink" viewBox="0 0 24 24" version="1.1" x="0px" y="0px"><title>christmas_016-bell-alarm-alert-noel</title><desc>Created with Sketch.</desc><g stroke="none" stroke-width="1" fill="none" fill-rule="evenodd"><g transform="translate(-285.000000, -93.000000)" fill="#1E3948"><g transform="translate(298.364109, 103.644116) rotate(45.000000) translate(-298.364109, -103.644116) translate(287.864109, 89.644116)"><path d="M13,2.5 C13,1.11928813 11.8807119,3.97903932e-13 10.5,3.97903932e-13 C9.11928813,3.97903932e-13 8,1.11928813 8,2.5 C8,3.88071187 9.11928813,5 10.5,5 C11.8807119,5 13,3.88071187 13,2.5 Z M9,2.5 C9,1.67157288 9.67157288,1 10.5,1 C11.3284271,1 12,1.67157288 12,2.5 C12,3.32842712 11.3284271,4 10.5,4 C9.67157288,4 9,3.32842712 9,2.5 Z"/><path d="M4.98992624,12.3938639 C5.05985171,12.1247262 5.1290639,11.8440545 5.2075819,11.5139985 C5.25795146,11.3022664 5.31007465,11.0792229 5.40965542,10.6521255 C6.42311686,6.32199535 7.36942488,5 10.5,5 C13.6409193,5 14.5938127,6.3311465 15.6184881,10.6838911 C15.7168995,11.1034747 15.7685082,11.3230525 15.8180599,11.5303539 C15.895535,11.8544746 15.9636492,12.1298617 16.0323024,12.3939374 C16.7271392,15.0666416 17.589094,16.8160924 19.1739802,18.1790955 L19.5530727,18.5051153 L20.2051123,17.7469303 L19.8260198,17.4209106 C18.4283492,16.218913 17.6483979,14.6358992 17.0001307,12.1423261 C16.8840979,11.6960033 16.8831533,11.6920515 16.5918803,10.4547458 C15.472419,5.69935762 14.2559438,4 10.5,4 C6.75428849,4 5.54374516,5.69113295 4.43596858,10.4242354 C4.14377842,11.6726513 4.14021923,11.6876126 4.02205966,12.1423996 C3.37559817,14.6305798 2.58840716,16.216539 1.17584766,17.4193125 L0.795157155,17.7434649 L1.44346184,18.5048459 L1.82415234,18.1806936 C3.42580571,16.8169094 4.29655027,15.0626142 4.98992624,12.3938639 Z"/><path d="M10.5,28 C12.9852814,28 15,25.9852814 15,23.5 C15,23.2238576 14.7761424,23 14.5,23 C14.2238576,23 14,23.2238576 14,23.5 C14,25.4329966 12.4329966,27 10.5,27 C8.56700338,27 7,25.4329966 7,23.5 C7,23.2238576 6.77614237,23 6.5,23 C6.22385763,23 6,23.2238576 6,23.5 C6,25.9852814 8.01471863,28 10.5,28 Z"/><path d="M2.41899105,18.290422 C2.51458299,18.3067605 2.72690978,18.3392968 3.02910816,18.3808616 C3.53025883,18.4497906 4.10258797,18.5186372 4.73679527,18.582848 C6.54727759,18.7661517 8.49304668,18.8761057 10.5,18.8761057 C12.5069832,18.8761057 14.4562756,18.765709 16.2726227,18.5816702 C16.9088616,18.5172041 17.4833673,18.4480849 17.9866939,18.3788841 C18.2901842,18.3371582 18.5035092,18.3044985 18.6172084,18.2854708 C19.3873913,18.1797958 20,18.7174361 20,19.5178265 L20,20.6503144 C20,21.5132424 19.2928817,22.3436436 18.4442348,22.4694109 C18.3425331,22.4917681 18.2087362,22.5188017 17.9947231,22.5546147 C17.6296589,22.6157046 17.1742168,22.6771425 16.6233359,22.7347128 C15.0383635,22.9003516 13.0107346,23 10.5,23 C7.98929635,23 5.95835637,22.8999002 4.36783169,22.7335053 C3.81496664,22.6756666 3.35739685,22.6139384 2.99019892,22.5525539 C2.77484501,22.5165531 2.63997973,22.4893625 2.58067283,22.47522 C1.70123559,22.3325493 1,21.5078593 1,20.6503144 L1,19.5178265 C1,18.7244442 1.62358197,18.1859894 2.41899105,18.290422 Z M0,20.6503144 C0,21.9984618 1.05733575,23.2419443 2.38540076,23.4552555 C2.43052401,23.4674542 2.58774932,23.499153 2.82531685,23.5388672 C3.21298799,23.6036742 3.69083222,23.6681375 4.26378318,23.7280775 C5.88987564,23.8981934 7.95544525,24 10.5,24 C13.0445238,24 15.1067394,23.8986518 16.7272757,23.7292964 C17.2983228,23.6696186 17.7741291,23.6054337 18.1597684,23.5409007 C18.3961773,23.50134 18.552527,23.4697496 18.6338845,23.4502831 C19.9325241,23.2597718 21,22.0061861 21,20.6503144 L21,19.5178265 C21,18.1125246 19.853477,17.1063081 18.4665778,17.2969884 C18.3478307,17.3166449 18.1441005,17.3478358 17.8504885,17.3882035 C17.3586446,17.4558255 16.7959065,17.523529 16.1718153,17.5867642 C14.3872196,17.7675859 12.4710675,17.8761057 10.5,17.8761057 C8.52890235,17.8761057 6.6162617,17.7680238 4.83752609,17.5879343 C4.21550724,17.5249575 3.65498964,17.4575317 3.16536681,17.3901883 C2.87310108,17.3499896 2.67042464,17.3189321 2.56671688,17.3015529 C1.1585456,17.1163506 0,18.1167394 0,19.5178265 L0,20.6503144 Z"/></g></g></g></svg>