<svg xmlns="http://www.w3.org/2000/svg" data-name="Layer 1" viewBox="0 0 48 48" fill="#1E3948" x="0px" y="0px"><title>tnp_crafticons</title><path d="M47.78,46.38A46.81,46.81,0,0,1,43,38.64a24,24,0,1,0-7.19,6.23A20.65,20.65,0,0,0,47,48h0A1,1,0,0,0,47.78,46.38ZM36.39,42.87a1,1,0,0,0-1.09,0,22,22,0,1,1,5.72-5,1,1,0,0,0-.13,1,45.74,45.74,0,0,0,4.05,7A17.57,17.57,0,0,1,36.39,42.87ZM14,21a3,3,0,1,0,3,3A3,3,0,0,0,14,21Zm0,4a1,1,0,1,1,1-1A1,1,0,0,1,14,25Zm10-4a3,3,0,1,0,3,3A3,3,0,0,0,24,21Zm0,4a1,1,0,1,1,1-1A1,1,0,0,1,24,25Zm10-4a3,3,0,1,0,3,3A3,3,0,0,0,34,21Zm0,4a1,1,0,1,1,1-1A1,1,0,0,1,34,25Z"/></svg>