<svg xmlns="http://www.w3.org/2000/svg" width="200" height="200"><rect id="backgroundrect" width="100%" height="100%" x="0" y="0" fill="none" stroke="none" class=""/>

 <g>
  <title>background</title>
  <rect fill="none" id="canvas_background" height="402" width="582" y="-1" x="-1"/>
 </g>
 <g class="currentLayer">
  <title>Layer 1</title>
  <g id="svg_1" class="">
   <path id="svg_3" d="m97.13981738753114,9.811741799894378 l0,18.85944399931134 l-88.08740306995418,0 l-5.366508455088592,32.16071852728093 c-2.5682576177923977,15.486210113255652 1.7632813495291093,31.240745649265733 11.921315210946801,43.2387252667138 c9.468054202906302,11.193003349184778 23.037654153630314,17.824474511544253 37.565559185620145,18.706115186308807 l0,59.87490147748843 l-15.716203332759449,0 l0,6.286481333103779 l15.716203332759449,0 l6.286481333103779,0 l15.716203332759449,0 l0,-6.286481333103779 l-15.716203332759449,0 l0,-59.79823707098717 c18.05446773104805,-1.0733016910177196 34.19232529956446,-11.154671145934145 43.08539645371127,-26.794210072192328 c7.0531253981164355,12.30463724345313 20.277735519584752,20.66105755209108 35.45728800683534,20.66105755209108 l6.286481333103779,0 l0,65.96972179433905 l-15.716203332759449,0 l0,6.286481333103779 l15.716203332759449,0 l6.248149129853147,0 l15.716203332759449,0 l0,-6.286481333103779 l-15.716203332759449,0 l0,-66.04638620084033 l6.286481333103779,0 c22.539335511372087,0 40.862128665174566,-18.32279315380248 40.862128665174566,-40.862128665174566 l0,-65.96972179433905 l-100.54536912640984,0 zm-40.862128665174566,106.83185045951362 c-13.837925373478441,0 -26.94753888519486,-6.056488113599983 -35.878942242592295,-16.636176210774636 s-12.802955885711356,-24.49427787715436 -10.503023690673388,-38.14054223437964 l4.484867780324037,-26.909206681944227 l82.75922681811622,0 l0,40.862128665174566 c0,1.2266305040202496 0.07666440650126566,2.4532610080404993 0.19166101625316456,3.6798915120607507 c0.03833220325063289,0.5366508455088596 0.11499660975189877,1.0733016910177196 0.19166101625316456,1.609952536526578 c0.07666440650126566,0.6133152520101254 0.1533288130025312,1.2266305040202496 0.26832542275443005,1.839945756030376 c0.11499660975189877,0.7283118617620266 0.26832542275443005,1.4566237235240465 0.45998643900759445,2.1849355852860697 c0.07666440650126566,0.306657626005063 0.1533288130025312,0.6133152520101254 0.2299932195037976,0.9199728780151878 c0.2299932195037976,0.8816406747645552 0.45998643900759445,1.7632813495291093 0.7666440650126586,2.6065898210430305 c-7.589776243625295,17.019498243280964 -24.34094906415183,27.982508372961945 -42.97039984395937,27.982508372961945 zm135.12101645848063,-40.862128665174566 c0,19.051105015564502 -15.486210113255652,34.57564733207079 -34.57564733207079,34.57564733207079 l-18.85944399931134,0 c-14.91122706449616,0 -27.637518543706246,-9.506386406156935 -32.46737615328598,-22.807660934126517 c-0.306657626005063,-0.8816406747645552 -0.6133152520101254,-1.7632813495291093 -0.8433084715139216,-2.6449220242936633 c-0.03833220325063289,-0.1533288130025312 -0.07666440650126566,-0.26832542275443005 -0.11499660975189877,-0.4216542357569608 c-0.2299932195037976,-0.8049762682632916 -0.4216542357569608,-1.6482847397772105 -0.574983048759492,-2.4532610080404993 c-0.07666440650126566,-0.3833220325063299 -0.11499660975189877,-0.7666440650126586 -0.19166101625316456,-1.149966097518984 c-0.11499660975189877,-0.6133152520101254 -0.19166101625316456,-1.2649627072708833 -0.26832542275443005,-1.8782779592810122 c-0.11499660975189877,-1.0733016910177196 -0.1533288130025312,-2.1082711787848054 -0.1533288130025312,-3.2199050730531553 l0,-41.130454087928996 l0,-18.552786373306276 l87.97240646020228,0 l0,59.683240461235265 l0.07666440650126566,0 z"/>
  </g>
 </g>
</svg>