<svg xmlns="http://www.w3.org/2000/svg" xmlns:xlink="http://www.w3.org/1999/xlink" version="1.1" enable-background="new 0 0 100 100" xml:space="preserve" width="100" height="100"><rect id="backgroundrect" width="100%" height="100%" x="0" y="0" fill="none" stroke="none" class=""/><g class="currentLayer"><title>Layer 1</title><path d="M98.01827446747677,53.24648685553459 c-1.1156386270523078,-4.824104063272476 -3.951220137476921,-8.369011367440223 -8.198566577196122,-10.254234047412872 c-2.4516503162384033,-1.088091994285584 -4.967002220749856,-1.640746314167977 -7.4754674670696275,-1.640746314167977 c-1.4720231884717947,0 -2.8373031749725346,0.18766143572330496 -4.0786233140230195,0.4872310670614245 c0.7299857683181771,-1.1362986016273506 1.2344334808588033,-2.1417506976127623 1.5064564794301993,-3.03185126888752 c1.7182212188243868,-5.586801458001137 0.01721664547920227,-13.41693182194233 -4.1388815732002255,-19.04505322909355 c-3.810043644547463,-5.15638532102108 -9.300431887865066,-7.997131825089456 -15.463990969419479,-7.997131825089456 c-11.022096435785294,0 -17.001437410712242,6.139455777883529 -19.583934232592583,9.791106284022332 c-2.5790534927845004,-3.651650506138802 -8.56183779680729,-9.791106284022332 -19.583934232592583,-9.791106284022332 c-6.160115752458573,0 -11.655668989419937,2.8390248395204543 -15.46054764032364,7.997131825089456 c-4.156098218679428,5.628121407151222 -5.860546121120453,13.458251771092415 -4.142324902296067,19.04505322909355 c1.6373029850721363,5.3165001239776615 11.645339002132417,14.582498720884324 21.32281542599201,23.540319363713266 c6.738595040559769,6.241033986210823 15.968438681960107,14.785655137538912 16.14404846584797,16.994550752520563 c0,0.0017216645479202295 0,0.0034433290958404586 0,0.005164993643760692 s0,0.005164993643760692 0,0.005164993643760692 c0.006886658191680921,0.9469155013561249 0.7764707111120224,1.7113345606327055 1.721664547920227,1.7113345606327055 c0.9486371659040449,0 1.7182212188243868,-0.7661407238245018 1.721664547920227,-1.7147778897285462 c0.039598284602165294,-0.4631277633905415 0.7265424392223361,-2.0505024765729907 5.6866580017805095,-7.067432969212533 c2.3328554624319082,6.012052601337433 4.822382398724557,12.733430996417999 4.395409590840339,14.250217463135717 c-0.3701578778028494,0.8642756030559543 0.01721664547920227,1.8835010154247291 0.8780489194393164,2.265710545063019 c0.2324247139692307,0.10157820832729346 0.4700144215822222,0.15150648021698024 0.7093257937431341,0.15150648021698024 c0.6318508890867236,0 1.2344334808588033,-0.3512195677757263 1.5305597831010824,-0.9555238240957261 c0.010329987287521365,-0.020659974575042754 0.020659974575042754,-0.043041613698005764 0.030989961862564135,-0.06714491736888893 c0.9882354505062109,-1.5632714095115663 10.00803601706028,-4.977332208037376 16.595124577403066,-7.468580808877945 c10.125109206318855,-3.8324252836704256 19.685512440919876,-7.449642498850823 22.61062050783634,-10.936013208389284 C97.94079956282036,65.71133818247704 99.31985286570446,58.864278275398284 98.01827446747677,53.24648685553459 zM40.581823484310064,75.43013455548672 c-2.4172170252799985,-3.321090912938118 -7.441034176111222,-8.124535001635552 -15.525970893144608,-15.605167462348938 c-8.467146246671676,-7.838738686680793 -19.002011615395546,-17.59541167974472 -20.367291601896287,-22.026976226091385 c-1.196556860804559,-3.8892402137517927 -0.33572458684444495,-10.629556918859482 3.622382208824158,-15.987376991987228 c2.222668931365013,-3.0111912943124772 6.227260669827461,-6.599140212178231 12.690389382719994,-6.599140212178231 c13.077763906002044,0 17.822671400070192,9.975324390649796 18.017219493985177,10.395410540342331 c0.27890965676307694,0.6146342436075218 0.8918222358226776,1.0106170896291737 1.5667147386074067,1.0106170896291737 s1.291248410940171,-0.3959828460216526 1.5701580677032472,-1.0106170896291737 c0.0464849427938462,-0.10502153742313398 4.858537354230881,-10.395410540342331 18.013776164889336,-10.395410540342331 c6.463128712892533,0 10.471163780450821,3.587948917865753 12.693832711815835,6.599140212178231 c3.958106795668602,5.357820073127747 4.815495740532875,12.096415113687515 3.618938879728317,15.987376991987228 c-0.38048786509037064,1.2413201390504842 -1.5494980931282045,3.023242946147919 -3.467432399511337,5.30617013669014 c-0.9210905331373216,-3.6895271261930462 -3.436442437648773,-9.092110477566719 -10.30932731294632,-12.142900056481361 c-1.8318510789871216,-0.8126256666183482 -3.7428987271785736,-1.224103493571282 -5.672884685397148,-1.224103493571282 c-9.267720261454583,0 -16.436731438994407,9.111048787593841 -17.30100704205036,15.383072735667229 c-0.6111909145116814,4.441894533634186 3.0060263006687165,13.750934744238853 6.893544849872589,23.66427921116352 C43.77378955615416,71.59598760726837 41.81281363607303,73.73773830488113 40.581823484310064,75.43013455548672 zM92.10435674537078,67.31076454749493 c-2.3466287788152695,2.795983225822449 -12.798854249238968,6.750646692395211 -21.191968920350075,9.92883944785595 c-7.65624224460125,2.8958397696018228 -12.525109586119653,4.8189390696287155 -15.381351071119306,6.456242054700851 c-0.6800574964284912,-3.121377825379372 -2.448206987142563,-7.855955332159995 -5.2820668330192575,-15.100719749808313 c-0.0034433290958404586,-0.006886658191680921 -0.006886658191680921,-0.0120516518354416 -0.006886658191680921,-0.01721664547920227 c-0.08436156284809121,-0.21176473939418808 -0.15839313840866118,-0.4028695042133333 -0.24275470125675203,-0.6197992372512828 c-3.278049299240112,-8.355238051056862 -7.35667261326313,-18.754091920495036 -6.859111558914185,-22.36786580657959 c0.6886658191680919,-4.996270518064499 6.8263999325037,-12.409758061408997 13.890389572620391,-12.409758061408997 c1.4461982202529913,0 2.8855097823143017,0.3133429477214817 4.276614737033844,0.9296988558769227 c8.770159207105637,3.8926835428476334 8.79598417532444,12.483789636969567 8.7925408462286,12.840174198389054 c-0.006886658191680921,0.2616930112838746 0.06714491736888893,0.5078910416364676 0.1721664547920229,0.7368724265098578 c0.006886658191680921,0.013773316383361836 0.013773316383361836,0.02754663276672366 0.020659974575042754,0.04131994915008552 c0.0878048919439317,0.17905311298370366 0.19799142301082637,0.3426112450361254 0.346054574131966,0.48206607341766394 c0.013773316383361836,0.015494980931282067 0.020659974575042754,0.03787662005424509 0.03615495550632479,0.055093265533447344 c0.010329987287521365,0.006886658191680921 0.020659974575042754,0.010329987287521365 0.030989961862564135,0.01721664547920227 c0.1205165183544159,0.10674320197105425 0.2582496821880342,0.19626975846290612 0.4131994915008548,0.2651363403797151 c0.006886658191680921,0.0034433290958404586 0.01721664547920227,0.0034433290958404586 0.02754663276672366,0.006886658191680921 c0.13773316383361825,0.06197992372512825 0.27546632766723667,0.0929698855876924 0.4200861496925357,0.1170731892585756 c0.0241033036708832,0.0034433290958404586 0.043041613698005764,0.008608322739601146 0.06714491736888893,0.010329987287521365 c0.5319943453073505,0.06886658191680924 1.0829270006418235,-0.08091823375225075 1.4754665175676351,-0.5027260479927065 c0.0464849427938462,-0.05164993643760687 0.0878048919439317,-0.0998565437793733 0.13773316383361825,-0.15150648021698024 c0.9073172167539595,-0.7351507619619368 4.3385946607589725,-3.2315643564462664 9.09555380666256,-3.2315643564462664 c2.024677508354187,0 4.068293326735496,0.45279777610301974 6.079197518706322,1.3446200119256981 c4.064849997639657,1.804304446220398 5.6350080653429035,5.2820668330192575 6.237590657114983,7.883501964926719 C95.86963711167232,59.23443615320114 94.24610744298354,64.75753602292923 92.10435674537078,67.31076454749493 z" id="svg_1" class=""/></g></svg>