<svg xmlns="http://www.w3.org/2000/svg" xmlns:xlink="http://www.w3.org/1999/xlink" version="1.1" x="0px" y="0px" viewBox="0 0 100 100" style="enable-background:new 0 0 100 100;" xml:space="preserve" fill="rgba(255, 255, 255, 1)"><g><path d="M20.7,73h2.7c0.5,1.9,1.3,3.7,2.2,5.4l-1.9,1.9c-1.1,1.1-1.1,2.8,0,3.9l5,5c0.5,0.5,1.2,0.8,1.9,0.8c0.7,0,1.4-0.3,1.9-0.8   l1.9-1.9c1.7,1,3.5,1.7,5.4,2.2v2.7c0,1.5,1.2,2.7,2.7,2.7h7.1c1.5,0,2.7-1.2,2.7-2.7v-2.7c1.9-0.5,3.7-1.3,5.4-2.2l1.9,1.9   c0.5,0.5,1.2,0.8,1.9,0.8c0.7,0,1.4-0.3,1.9-0.8l5-5c1.1-1.1,1.1-2.8,0-3.9l-1.9-1.9c1-1.7,1.7-3.5,2.2-5.4h2.7   c1.5,0,2.7-1.2,2.7-2.7v-7.1c0-1.5-1.2-2.7-2.7-2.7h-2.7c-0.5-1.9-1.3-3.7-2.2-5.4l1.9-1.9c1.1-1.1,1.1-2.8,0-3.9l-5-5   c-0.5-0.5-1.2-0.8-1.9-0.8c-0.7,0-1.4,0.3-1.9,0.8l-1.9,1.9c-1.7-1-3.5-1.7-5.4-2.2v-2.7c0-1.5-1.2-2.7-2.7-2.7h-7.1   c-1.5,0-2.7,1.2-2.7,2.7V44c-1.9,0.5-3.7,1.3-5.4,2.2l-1.9-1.9c-0.5-0.5-1.2-0.8-1.9-0.8c-0.7,0-1.4,0.3-1.9,0.8l-5,5   c-1.1,1.1-1.1,2.8,0,3.9l1.9,1.9c-1,1.7-1.7,3.5-2.2,5.4h-2.7c-1.5,0-2.7,1.2-2.7,2.7v7.1C18,71.8,19.2,73,20.7,73z M21,63.5h2.5   h2.3l0.6-2.2c0.4-1.6,1.1-3.2,1.9-4.7l1.1-2L27.8,53l-1.8-1.8l4.6-4.6l1.8,1.8l1.6,1.6l2-1.1c1.5-0.8,3.1-1.5,4.7-1.9l2.2-0.6V44   v-2.5h6.5V44v2.3l2.2,0.6c1.6,0.4,3.2,1.1,4.7,1.9l2,1.1l1.6-1.6l1.8-1.8l4.6,4.6L64.6,53L63,54.6l1.1,2c0.8,1.5,1.5,3.1,1.9,4.7   l0.6,2.2h2.3h2.5V70h-2.5h-2.3l-0.6,2.2c-0.4,1.6-1.1,3.2-1.9,4.7l-1.1,2l1.6,1.6l1.8,1.8l-4.6,4.6L60,85.2l-1.6-1.6l-2,1.1   c-1.5,0.8-3.1,1.5-4.7,1.9l-2.2,0.6v2.3V92h-6.5v-2.5v-2.3l-2.2-0.6c-1.6-0.4-3.2-1.1-4.7-1.9l-2-1.1l-1.6,1.6l-1.8,1.8l-4.6-4.6   l1.8-1.8l1.6-1.6l-1.1-2c-0.8-1.5-1.5-3.1-1.9-4.7L25.8,70h-2.3H21V63.5z"/><path d="M46.2,79.3c6.9,0,12.5-5.6,12.5-12.5s-5.6-12.5-12.5-12.5c-6.9,0-12.5,5.6-12.5,12.5S39.3,79.3,46.2,79.3z M46.2,57.2   c5.3,0,9.5,4.3,9.5,9.5s-4.3,9.5-9.5,9.5s-9.5-4.3-9.5-9.5S41,57.2,46.2,57.2z"/><path d="M82.2,19.3l-1.6-4.2c-0.3-0.7-0.9-1.1-1.6-1.1c-0.2,0-0.4,0-0.6,0.1l-1.6,0.6c-0.8-1-1.6-1.9-2.6-2.7l0.7-1.6   c0.4-0.9,0-1.9-0.9-2.3l-4.1-1.8c-0.2-0.1-0.5-0.1-0.7-0.1c-0.7,0-1.3,0.4-1.6,1.1l-0.7,1.6c-0.7-0.1-1.4-0.2-2.1-0.2   c-0.5,0-1.1,0-1.6,0.1l-0.6-1.6c-0.3-0.7-0.9-1.1-1.6-1.1c-0.2,0-0.4,0-0.6,0.1l-4.2,1.6c-0.9,0.4-1.3,1.4-1,2.3l0.6,1.6   c-1,0.8-1.9,1.6-2.7,2.6l-1.6-0.7c-0.2-0.1-0.5-0.1-0.7-0.1c-0.7,0-1.3,0.4-1.6,1.1l-1.8,4.1c-0.4,0.9,0,1.9,0.9,2.3l1.6,0.7   c-0.2,1.2-0.2,2.5-0.1,3.7L48,26c-0.9,0.4-1.3,1.4-1,2.3l1.6,4.2c0.3,0.7,0.9,1.1,1.6,1.1c0.2,0,0.4,0,0.6-0.1l1.6-0.6   c0.8,1,1.6,1.9,2.6,2.7l-0.7,1.6c-0.4,0.9,0,1.9,0.9,2.3l4.1,1.8c0.2,0.1,0.5,0.1,0.7,0.1c0.7,0,1.3-0.4,1.6-1.1l0.7-1.6   c0.7,0.1,1.4,0.2,2.1,0.2c0.5,0,1.1,0,1.6-0.1l0.6,1.6c0.3,0.7,0.9,1.1,1.6,1.1c0.2,0,0.4,0,0.6-0.1l4.2-1.6c0.9-0.4,1.3-1.4,1-2.3   l-0.6-1.6c1-0.8,1.9-1.6,2.7-2.6l1.6,0.7c0.2,0.1,0.5,0.1,0.7,0.1c0.7,0,1.3-0.4,1.6-1.1l1.8-4.1c0.4-0.9,0-1.9-0.9-2.3l-1.6-0.7   c0.2-1.2,0.2-2.5,0.1-3.7l1.6-0.6C82.1,21.2,82.5,20.2,82.2,19.3z M80.8,20.6l-1.6,0.6l-0.7,0.3l0.1,0.8c0.1,1.2,0.1,2.3-0.1,3.5   l-0.1,0.8l0.7,0.3l1.6,0.7c0.2,0.1,0.3,0.2,0.4,0.4c0.1,0.2,0.1,0.4,0,0.6l-1.8,4.1c-0.1,0.3-0.4,0.5-0.7,0.5c-0.1,0-0.2,0-0.3-0.1   l-1.6-0.7L76,32l-0.5,0.6C74.8,33.5,74,34.3,73,35l-0.6,0.5l0.3,0.7l0.6,1.6c0.2,0.4,0,0.8-0.4,1l-4.2,1.6c-0.1,0-0.2,0.1-0.3,0.1   c-0.3,0-0.6-0.2-0.7-0.5l-0.6-1.6l-0.3-0.7l-0.8,0.1c-0.5,0.1-1,0.1-1.5,0.1c-0.7,0-1.3,0-2-0.1l-0.8-0.1l-0.3,0.7l-0.7,1.6   c-0.1,0.3-0.4,0.5-0.7,0.5c-0.1,0-0.2,0-0.3-0.1l-4.1-1.8c-0.4-0.2-0.6-0.6-0.4-1l0.7-1.6l0.3-0.7l-0.6-0.5   c-0.9-0.7-1.7-1.6-2.4-2.5l-0.5-0.6l-0.7,0.3l-1.6,0.6c-0.1,0-0.2,0.1-0.3,0.1c-0.3,0-0.6-0.2-0.7-0.5l-1.6-4.2   c-0.1-0.2-0.1-0.4,0-0.6c0.1-0.2,0.2-0.3,0.4-0.4l1.6-0.6l0.7-0.3l-0.1-0.8c-0.1-1.2-0.1-2.3,0.1-3.5l0.1-0.8l-0.7-0.3L48.5,20   c-0.4-0.2-0.6-0.6-0.4-1l1.8-4.1c0.1-0.3,0.4-0.5,0.7-0.5c0.1,0,0.2,0,0.3,0.1l1.6,0.7l0.7,0.3l0.5-0.6c0.7-0.9,1.6-1.7,2.5-2.4   l0.6-0.5l-0.3-0.7l-0.6-1.6c-0.2-0.4,0-0.8,0.4-1l4.2-1.6c0.1,0,0.2-0.1,0.3-0.1c0.3,0,0.6,0.2,0.7,0.5l0.6,1.6l0.3,0.7l0.8-0.1   c0.5-0.1,1-0.1,1.5-0.1c0.7,0,1.3,0,2,0.1l0.8,0.1l0.3-0.7l0.7-1.6c0.1-0.3,0.4-0.5,0.7-0.5c0.1,0,0.2,0,0.3,0.1l4.1,1.8   c0.2,0.1,0.3,0.2,0.4,0.4c0.1,0.2,0.1,0.4,0,0.6l-0.7,1.6l-0.3,0.7l0.6,0.5c0.9,0.7,1.7,1.6,2.4,2.5l0.5,0.6l0.7-0.3l1.6-0.6   c0.1,0,0.2-0.1,0.3-0.1c0.3,0,0.6,0.2,0.7,0.5l1.6,4.2C81.4,20,81.2,20.5,80.8,20.6z"/><path d="M64.6,15.8c-1,0-2,0.2-2.9,0.6c-4.1,1.6-6.1,6.3-4.5,10.4c1.2,3.2,4.3,5.1,7.5,5.1c1,0,2-0.2,2.9-0.6   c4.1-1.6,6.1-6.3,4.5-10.4C70.8,17.7,67.8,15.8,64.6,15.8z M71,26.6c-0.7,1.7-2.1,3-3.9,3.7c-0.8,0.3-1.7,0.5-2.6,0.5   c-2.9,0-5.5-1.7-6.5-4.4c-1.4-3.6,0.4-7.7,4-9.1c0.8-0.3,1.7-0.5,2.6-0.5c2.9,0,5.5,1.7,6.5,4.4C71.8,23,71.8,24.9,71,26.6z"/></g></svg>