<svg xmlns:dc="http://purl.org/dc/elements/1.1/" xmlns:cc="http://creativecommons.org/ns#" xmlns:rdf="http://www.w3.org/1999/02/22-rdf-syntax-ns#" xmlns:svg="http://www.w3.org/2000/svg" xmlns="http://www.w3.org/2000/svg" xmlns:sodipodi="http://sodipodi.sourceforge.net/DTD/sodipodi-0.dtd" xmlns:inkscape="http://www.inkscape.org/namespaces/inkscape" version="1.1" x="0px" y="0px" viewBox="0 0 96 96"><g transform="translate(0,-952.36218)"><path style="font-size:medium;font-style:normal;font-variant:normal;font-weight:normal;font-stretch:normal;text-indent:0;text-align:start;text-decoration:none;line-height:normal;letter-spacing:normal;word-spacing:normal;text-transform:none;direction:ltr;block-progression:tb;writing-mode:lr-tb;text-anchor:start;baseline-shift:baseline;opacity:1;color:#000000;fill:#1E3948;fill-opacity:1;stroke:none;stroke-width:4.00000047999999970;marker:none;visibility:visible;display:inline;overflow:visible;enable-background:accumulate;font-family:Sans;-inkscape-font-specification:Sans" d="m 7.8125,973.36218 a 2.0002002,2.0002002 0 0 0 -1.8125,2 l 0,54.00002 a 2.0002002,2.0002002 0 0 0 2,2 l 64,0 a 2.0002002,2.0002002 0 0 0 2,-2 l 0,-11 16.8125,12.5937 A 2.0002002,2.0002002 0 0 0 94,1029.3622 l 0,-54.00002 a 2.0002002,2.0002002 0 0 0 -3.1875,-1.59375 L 74,986.36218 l 0,-11 a 2.0002002,2.0002002 0 0 0 -2,-2 l -64,0 a 2.0002002,2.0002002 0 0 0 -0.1875,0 z m 2.1875,4 60,0 0,13 a 2.0002002,2.0002002 0 0 0 3.1875,1.59375 L 90,979.36218 90,1025.3622 73.1875,1012.7684 A 2.0002002,2.0002002 0 0 0 70,1014.3622 l 0,13 -60,0 0,-50.00002 z"/></g></svg>